<?xml version="1.0" encoding="UTF-8" standalone="no"?><!DOCTYPE svg PUBLIC "-//W3C//DTD SVG 1.1//EN" "http://www.w3.org/Graphics/SVG/1.1/DTD/svg11.dtd"><svg width="100%" height="100%" viewBox="0 0 1730 1373" version="1.1" xmlns="http://www.w3.org/2000/svg" xmlns:xlink="http://www.w3.org/1999/xlink" xml:space="preserve" xmlns:serif="http://www.serif.com/" style="fill-rule:evenodd;clip-rule:evenodd;stroke-linejoin:round;stroke-miterlimit:2;"><g><g><path d="M1340.039,118.721l-3.766,4.933l-4.043,-0.141l-2.577,1.604c-3.842,6.106 -1.631,7.663 -9.41,14.955c-5.238,4.91 -4.365,5.439 -6.419,12.684l2.235,0.295l5.416,6.456c-35.332,30.792 -35.067,30.678 -71.493,60.065c-17.604,14.167 -16.752,15.476 -55.259,85.16c-73.75,127.072 -71.241,130.904 -83.733,136.413c-33.765,-18.087 -37.614,-23.244 -37.346,-16.57c0.369,9.201 25.155,34.985 27.702,37.634c-6.563,24.088 -8.454,22.596 -27.234,54.971l-6.637,-5.112c-2.376,-7.956 -4.903,-11.034 -9.376,-4.057c-1.718,2.68 -1.682,8.157 -1.677,8.884c0.045,6.767 4.625,5.226 4.942,5.584l5.97,5.072c-7.011,12.452 -17.368,16.65 0.519,32.781c25.492,22.989 56.503,54.143 61.319,58.981c1.137,1.333 14.215,16.662 14.215,16.662c0.854,2.814 -0.204,2.727 -2.779,37.077c-3.004,21.006 4.179,32.304 -10.606,28.67c-17.859,-4.389 -93.236,-28.972 -101.315,-31.606c-176.592,-57.412 -178.142,-51.549 -200.473,-66.715c-67.407,-82.254 -217.118,-278.049 -227.21,-281.701c-61.426,-22.225 -292.941,-70.14 -310.603,-91.974c-44.332,-54.804 -52.952,-65.202 -41.629,-62.968c41.467,8.179 511.877,100.963 517.914,105.028c3.055,2.057 205.192,192.402 232.793,223.819c1.691,1.925 28.075,31.955 26.19,16.374c-0.231,-1.908 -137.599,-170.135 -149.626,-184.864c-46.874,-57.404 -50.878,-69.515 -69.772,-76.206c-213.332,-75.545 -237.706,-84.375 -245.582,-94.2c-2.952,-3.682 -47.167,-58.836 -29.161,-52.742c106.295,35.974 383.314,109.968 395.048,123.97c37.158,44.339 69.893,105.315 82.119,103.296c43.656,-7.212 41.143,-17.886 165.429,-46.558c0.959,-0.221 10.9,-2.515 11.755,-3.86c6.81,-10.717 -5.985,-3.309 -144.813,-11.237c-20.539,-1.173 -55.029,1.805 -52.486,-10.876c1.457,-7.265 34.031,-71.646 37.136,-77.783c6.775,-13.391 10.773,-8.382 169.003,-15.779c61.056,-2.854 69.33,1.899 65.594,-8.441c-3.431,-1.635 -3.179,-1.85 -7.074,-1.614c-13.751,-1.832 -170.151,-22.67 -170.348,-34.806c-0.093,-5.72 67.781,-52.857 71.566,-52.951c4.971,-0.123 153.419,39.479 161.911,42.566c1.898,0.69 1.753,0.654 23.67,8.824Z" style="fill:#010101;"/><path d="M1096.803,881.838c40.992,30.807 37.195,48.164 36.051,53.393l-8.32,17.98c-1.419,2.604 -15.537,28.501 -19.606,31.124c-7.332,4.727 -160.326,-79.024 -185.415,-88.32c-10.947,-4.057 -12.022,4.534 -45.455,75.873c-19.397,41.389 -42.705,68.037 -15.541,54.538c13.956,-10.354 13.824,-9.84 28.368,-18.455c24.12,-14.287 63.426,-49.085 43.184,-13.495c-15.557,27.352 -77.008,171.579 -80.942,179.37c-4.567,9.044 -7.286,5.103 -143.64,13.945c-7.413,0.481 -8.676,0.653 -30.226,44.285c-32.778,70.664 -33.255,73.416 -54.898,80.173c-108.01,33.719 -107.176,38.239 -116.895,37.913c-6.704,-0.224 -1.817,-21.392 -1.402,-23.19c8.951,-38.776 6.702,-68.277 21.776,-72.066c40.872,-10.275 54.699,7.07 67.916,-38.297c1.707,-5.86 1.82,-5.753 22.339,-72.867c7.718,-25.243 23.919,-20.079 67.045,-25.744c24.333,-3.197 17.255,-25.926 53.064,-103.818c-0.222,-0.229 0.94,-5.251 -4.342,-4.486c-0.269,0.039 -2.199,0.318 -3.239,1.118c-7.023,5.4 -2.358,10.158 -46.638,61.642c-12.991,15.104 -92.213,9.034 -116.18,14.154c-9.565,2.043 -69.295,112.818 -129.446,222.143c-7.1,12.904 -10.171,9.097 -157.428,63.766c-12.276,4.557 -0.692,-25.209 -0.241,-26.809c10.501,12.987 17.638,-2.962 28.409,-15.631c4.805,-5.652 28.332,-25.501 31.651,-28.301c30.188,-25.472 35.856,-10.368 55.964,-39.115c5.758,-28.908 11.734,-39.796 25.366,-40.966c-11.196,-1.16 2.5,-3.565 2.5,-3.565c82.5,-175.437 78.99,-178.092 80.64,-178.479c13.607,-3.196 19.232,2.343 176.331,-32.599c10.715,-2.171 21.43,-4.341 32.144,-6.512c27.83,-7.527 44.596,-14.776 87.064,-26.16c15.838,-4.245 69.607,-158.557 75.498,-168.222c10.947,-17.959 200.042,55.651 224.542,75.682Z" style="fill:#a87b27;"/><path d="M668.989,673.863c0.495,5.692 2.086,24.001 -28.072,63.948c-73.738,-1.531 -84.05,-7.759 -92.105,-2.482c-57.954,37.962 -356.47,252.353 -364.716,252.51c-12.08,0.229 -161.742,-66.607 -175.665,-72.824c-42.587,-19.018 88.285,-0.448 122.246,-22.33c127.41,-82.097 140.239,-82.721 130.44,-91.077c-2.283,-1.947 -114.325,52.243 -129.753,42.47c-8.106,-5.135 -88.978,-56.363 -101.088,-64.672l0.143,-4.787c10.955,-7.609 11.665,-0.94 24.29,-1.023c109.11,-0.715 109.589,-1.674 133.135,-13.516c23.834,-11.987 289.826,-145.762 299.45,-145.817c9.996,-0.057 167.225,54.575 181.694,59.602Z" style="fill:#010101;"/><path d="M1197.234,776.376c6.435,9.335 74.726,108.396 94.177,102.477c15.625,-4.754 161.419,-49.112 194.702,-61.944c1.704,-0.657 24.665,-9.51 22.463,-1.163c-8.663,32.839 -9.054,32.345 -17.055,65.329c-14.723,55.194 -14.066,54.921 -31.179,109.206c-15.29,15.001 -16.823,11.31 -51.346,32.599c-11.69,6.181 -33.763,17.567 -36.704,19.084c-0.657,-11.321 -7.341,-53.682 4.875,-58.693c52.881,-21.691 57.973,-16.048 63.13,-33.953c24.491,-85.029 26.557,-87.059 21.173,-91.493c-3.732,-3.073 -31.22,13.11 -71.819,34.034c-97.255,50.447 -96.998,55.169 -105.375,50.955c-18.461,-9.287 -17.378,-10.458 -33.794,-24.21c0.017,-3.265 0.033,-6.531 0.05,-9.796l4.887,-1.074c22.294,-4.366 5.041,-13.244 4.056,-13.249c-1.06,-0.006 -0.886,0.442 -12.557,4.818c-3.695,-7.904 -7.39,-15.808 -11.084,-23.712c-13.231,-30.669 -13.064,-30.137 -27.071,-60.75c-9.505,-17.84 -9.623,-17.185 -19.073,-35.408c2.785,-5.42 3.976,-8.278 7.545,-3.058Z" style="fill:#a87b2a;"/><path d="M1342.008,592.311l31.827,46.597c5.671,6.625 7.219,9.912 12.285,16.963c2.409,3.352 3.14,4.784 4.166,6.218c0.635,0.887 0.288,0.822 1.788,2.788c6.292,8.247 12.497,13.409 15.933,17.813c9.743,10.565 15.766,13.901 27.449,23.703c3.893,-2.809 -0,0 -0,0c40.954,-1.538 43.773,-6.332 167.379,-25.03l11.67,1.82c7.146,25.642 13.122,42.5 17.923,63.623c-0.737,0.754 -9.214,9.42 -9.214,9.42c0.172,5.706 5.133,3.065 4.779,9.273c-0.18,3.165 -2.211,38.854 -1.507,39.609c7.273,7.8 6.396,8.444 7.71,20.032c-1.904,21.278 -0.914,21.181 -3.803,32.424l-1.3,4.607l-0.849,4.607l1.092,4.607l-0.281,4.607l-0.022,4.607l-0.029,4.607l0.033,4.607l-0.225,4.607l-0.33,4.607l-0.512,4.607l-1.817,4.607l-2.063,4.607l0.964,4.607c9.887,9.577 6.067,14.405 -6.045,19.05c-3.209,-0.575 -2.657,-2.066 -11.57,-2.074c-13.057,-0.011 -4.921,7.043 -5.017,7.72c-4.747,5.67 -5.968,5.054 -6.613,16.892c-0.622,-0.35 -6.077,4.616 -8.527,-4.795c-3.287,-12.624 0.031,-13.416 -5.605,-25.225c28.327,-23.269 41.213,-17.875 38.145,-57.711c-10.515,-136.532 -7.629,-144.498 -20.716,-144.459c-14.133,0.042 -14.387,-2.715 -27.23,3.777c-5.167,-11.276 -5.929,-11.304 -17.321,-11.783c-143.294,22.739 -196.43,23.103 -200.213,19.742c-3.19,-2.833 -6.483,-70.544 -12.334,-146.269Z" style="fill:#a87b2a;"/><path d="M1227.352,25.041c59.555,18.499 164.496,36.788 185.329,41.462c3.385,0.759 11.81,3.964 -9.552,47.919c-16.096,8.606 -17.612,0.735 -34.076,7.562c-10.836,4.494 -9.908,7.239 -47.578,37.524l-12.531,-0.476l-10.507,-4.045c2.054,-7.246 1.447,-13.348 6.686,-18.258c7.779,-7.292 14.729,-5.643 18.571,-11.749l-1.87,-5.215l8.579,0.647l9.636,-1.69c0.295,-2.415 2.66,-4.078 2.955,-6.493c0.463,-3.8 -94.882,-65.458 -103.27,-70.883c-2.516,-1.627 -2.259,-1.491 -5.117,-2.873c-8.877,-4.293 -7.482,-6 -9.585,-9.774l2.331,-3.656Z" style="fill:#010101;"/><path d="M127.647,110.1c4.521,1.177 27.696,7.213 56.337,15.542l-3.939,4.427l-4.043,3.176c-15.276,14.078 -16.545,11.985 -29.389,31.668c-1.609,2.466 -4.491,-1.292 -25.172,25.546c-8.104,-14.559 -8.063,-14.458 -8.752,-15.724c-1.587,-2.916 -1.168,-2.851 -2.892,-6.019c-5.454,-9.425 -10.909,-18.85 -16.363,-28.275c4.007,-7.49 4.922,-6.413 7.599,-14.205c4.403,-12.816 26.269,-16.027 26.615,-16.135Z" style="fill:#4b494a;"/><path d="M1581.678,929.015c5.635,11.809 2.317,12.601 5.605,25.225c2.451,9.411 7.905,4.445 8.527,4.795c3.112,7.949 4.686,13.008 9.091,5.772c3.004,-4.935 3.044,-4.792 2.213,-10.5c-1.632,-11.203 -7.591,-7.207 -8.653,-9.518c-2.846,-2.184 -6.311,-7.442 6.2,-17.319c42.859,-33.833 68.338,-128.542 35.295,-12.714c1.753,4.637 -17.441,31.016 -15.687,35.653c-3.433,10.967 -2.707,10.634 -3.172,22.255c1.352,12.532 0.654,12.246 3.834,24.669c-35.382,37.068 -37.521,36.804 -40.614,33.867c-0.304,-0.288 -16.825,-87.465 -12.246,-94.255c0.578,-0.858 0.712,-0.588 9.608,-7.931Z" style="fill:#a87b2a;"/><path d="M1098.112,927.071l-4.261,4.963c-1.76,0.06 -25.877,0.881 -20.598,8.838c0.307,0.463 0.183,0.266 24.453,3.414c1.173,4.674 2.345,9.348 3.518,14.022c-7.883,1.494 -7.583,1.467 -15.298,-0.72c-7.489,-0.391 -6.614,-2.343 -12.529,-7.826c-11.355,-10.523 -43.166,-16.229 -48.502,-22.521c-10.146,-11.963 2.105,-9.121 2.495,-8.188c10.494,25.121 8.337,-17.85 8.25,-19.585c-1.558,-31.043 9.66,-1.511 9.834,-0.636c0.222,1.115 1.3,6.539 12.277,2.933c14.187,-4.66 13.809,-7.403 28.188,-4.09c1.847,0.426 4.258,-1.958 5.635,-0.493c1.349,1.434 -0.601,4.258 -0.17,6.302c2.752,13.062 -3.296,16.491 6.71,23.587Z" style="fill:#ab7927;"/><path d="M389.965,36.874l4.39,-0.163c32.367,12.177 32.036,12.098 64.605,24.027l1.112,4.494c-3.246,32.051 -10.479,26.017 -37.504,50.705c-32.871,-71.927 -36.497,-72.529 -32.604,-79.063Z" style="fill:#201f1e;"/><path d="M1632.428,746.805c3.209,9.81 12.129,37.082 33.774,125.082c-9.512,6.664 -9.847,0.435 -17.963,0.324c-1.814,2.789 -3.627,5.578 -5.441,8.368c-0.528,-1.729 -1.055,-3.458 -1.583,-5.186c-8.099,-7.784 -7.075,-10.688 -7.02,-10.739c6.674,-6.112 1.983,-3.311 0,-22.933c-1.237,-12.237 3.379,-12.386 -4.781,-15.804c-1.314,-11.588 1.669,-12.448 -5.604,-20.248c-0.704,-0.755 -6.528,-34.801 -6.348,-37.966c0.353,-6.208 -1.932,-16.994 -2.104,-22.699c0,0 16.332,2.555 17.069,1.801Z" style="fill:#a87b2a;"/><path d="M1699.885,881.1c3.489,4.302 3.246,3.925 3.489,4.302c1.414,2.197 0.348,2.458 1.744,4.627c-4.205,11.332 -8.686,5.319 -17.227,13.327c-8.337,7.817 -10.257,6.545 -12.403,18.695c-17.428,-0.059 -12.443,7.805 -11.782,8.847c1.302,2.053 10.022,3.591 0.183,10.922c-2.692,2.005 -18.577,19.108 -24.407,17.084c-4.344,-1.508 -4.273,-3.285 -8.086,-0.597l-2.207,5.205c-2.697,3.051 -5.394,6.101 -8.092,9.152c0.465,-11.621 -0.261,-11.289 3.172,-22.255c13.697,-16.604 13.8,-15.722 28.61,-31.379c10.558,-11.451 12.12,-9.765 18.131,-24.717l4.856,-5.681c8.531,-12.352 10.58,-7.904 24.02,-7.532Z" style="fill:#edbc63;"/><path d="M214.397,156.064c5.049,6.073 10.098,12.147 15.148,18.22c-26.138,18.69 -32.031,42.518 -74.702,75.91c-2.649,-4.598 -5.299,-9.195 -7.948,-13.793c2.593,-2.741 53.087,-59.38 67.503,-80.337Z" style="fill:#3f3e3e;"/><path d="M1708.969,918.59c-35.859,37.702 -77.067,72.806 -84.038,78.744c-3.18,-12.424 -2.481,-12.138 -3.834,-24.669c2.697,-3.051 5.394,-6.101 8.092,-9.152l2.207,-5.205c3.813,-2.688 3.741,-0.911 8.086,0.597c5.83,2.024 21.716,-15.079 24.407,-17.084c9.84,-7.331 1.119,-8.869 -0.183,-10.922c-0.661,-1.043 -5.646,-8.907 11.782,-8.847c0.826,1.18 -0.69,3.346 0.136,4.526c0,0 7.661,-0.933 8.327,-1.014l0.618,-3.51l3.424,0.566l2.316,-5.173l5.769,-4.217l4.043,-0.213l4.043,-2.358l4.804,7.931Z" style="fill:#deb95f;"/><path d="M1526.685,83.352c0.72,-5.911 2.054,-16.864 40.584,-58.539c12.889,-13.941 3.592,15.969 3.178,17.302c-9.74,31.338 -7.823,79.429 -27.075,58.932c-1.332,-1.419 -14.916,-15.88 -16.687,-17.695Z" style="fill:#a27635;"/><path d="M553.092,165.051c39.357,49.139 39.649,53.943 35.076,55.641c-1.53,0.568 -78.011,-28.238 -84.769,-30.784c7.808,-7.394 15.651,-11.591 18.931,-15.518c10.745,20.836 16.201,8.656 30.762,-9.34Z" style="fill:#181818;"/><path d="M523.704,125.101c4.114,6.033 8.229,12.066 12.343,18.099c2.497,3.278 4.993,6.557 7.49,9.835c-4.544,4.95 -4.5,4.724 -21.208,21.356c-3.28,3.927 -11.123,8.123 -18.931,15.518c-8.146,-2.743 -16.291,-5.485 -24.437,-8.228c15.917,-22.538 34.409,-32.387 40.674,-50.286l4.068,-6.293Z" style="fill:#201f1e;"/><path d="M237.135,184.633c4.382,5.504 8.765,11.008 13.147,16.512c-24.505,20.014 -21.52,23.472 -45.169,45.051c-8.631,7.875 -4.225,12.167 -13.483,19.361c-1.07,0.831 -2.743,-1.679 -3.812,-0.848l-16.018,-4.703c0.803,-1.199 3.097,2.045 3.9,0.847c5.446,-8.129 1.952,-10.529 12.48,-20.526c6.936,-6.586 35.16,-43.902 48.956,-55.693Z" style="fill:#3b3a39;"/><path d="M1634.196,825.138c8.712,3.837 10.95,3.32 10.206,14.052c-1.365,19.691 11.852,21.259 4.02,25.203c-4.609,2.321 -9.671,3.215 -1.572,10.998l-4.053,5.186c-0.068,1.855 -0.856,23.187 -0.856,23.187c1.241,11.431 4.657,8.732 5.623,9.804l5.313,5.461c-14.81,15.657 -14.913,14.775 -28.61,31.379c-1.753,-4.637 -3.507,-9.275 -5.26,-13.912c12.112,-4.645 13.541,-7.917 3.654,-17.494l-0.338,-4.996l0.242,-5.709l2.671,-4.641l0.911,-4.183l0.956,-5.125l-2.621,-1.753l1.503,-3.763l-1.394,-3.569l0.25,-5.709l0.793,-4.801l-2.629,-3.439l0.679,-3.893c-3.583,-1.881 -1.967,-10.098 2.495,-11.287c-4.565,-11.065 4.581,-9.682 8.015,-30.997Z" style="fill:#a87b2a;"/><path d="M208.239,148.299c2.053,2.588 4.105,5.177 6.158,7.765c-13.116,22.043 -63.363,78.889 -67.503,80.337l-7.928,-14.154l-0.064,-6.377c8.707,-6.739 8.791,-5.717 15.521,-14.534c33.117,-29.64 30.887,-40.218 53.815,-53.037Z" style="fill:#0b0a0a;"/><path d="M229.544,174.284l7.59,10.348c-13.796,11.791 -42.019,49.107 -48.956,55.693c-10.528,9.996 -7.033,12.396 -12.48,20.526c-0.803,1.199 -3.097,-2.045 -3.9,-0.847c-9.669,-3.123 -9.745,-2.324 -16.957,-9.811c40.812,-33.392 46.717,-57.22 74.702,-75.91Z" style="fill:#0a0908;"/><path d="M194.094,133.026c4.715,5.091 9.43,10.183 14.145,15.274c-22.928,12.819 -19.773,23.964 -52.89,53.605c-13.799,2.022 -16.046,4.972 -11.65,-12.265c46.045,-52.543 45.98,-52.576 50.395,-56.613Z" style="fill:#4b494a;"/><path d="M1408.997,1022.881c0.843,1.315 3.443,-1.425 4.286,-0.109c2.164,3.378 -13.07,33.531 -19.172,47.581c-3.887,8.952 -1.508,10.895 -9.325,16.173c-1.237,0.835 -2.806,-2.547 -4.043,-1.712l-4.087,-1.524l-2.795,-18.555c-0.523,-7.59 -1.046,-15.181 -1.569,-22.771c2.94,-1.517 25.014,-12.902 36.704,-19.084Z" style="fill:#e4bd68;"/><path d="M183.984,125.642c5.996,2.692 5.534,2.696 10.11,7.384c-4.416,4.038 -4.351,4.07 -50.395,56.613c-2.134,8.239 -6.564,6.812 -13.986,15.647c-2.757,-4.942 -5.515,-9.885 -8.272,-14.827c20.681,-26.838 20.513,-26.186 22.468,-28.303c15.405,-16.683 16.817,-14.833 32.093,-28.911l4.043,-3.176l3.939,-4.427Z" style="fill:#0c0b0b;"/><path d="M492.011,78.562c4.293,5.706 8.586,11.413 12.879,17.119c-17.478,11.248 -62.114,61.174 -62.621,61.979c-2.417,-4.773 -4.835,-9.547 -7.252,-14.32c29.187,-31.817 30.368,-30.091 56.994,-64.778Z" style="fill:#201f1e;"/><path d="M250.282,201.144l8.19,10.343c-49.411,49.603 -44.859,55.499 -50.369,58.352c-1.238,0.641 -2.82,-1.622 -4.007,-0.868l-16.279,-4.264c1.07,-0.831 2.743,1.679 3.812,0.848c9.258,-7.194 4.852,-11.486 13.483,-19.361c23.649,-21.579 20.664,-25.036 45.169,-45.051Z" style="fill:#0a0908;"/><path d="M508.796,101.191c4.904,7.255 10.594,17.073 11.474,18.59c-8.316,3.414 -7.322,4.802 -57.611,57.065c-3.889,-1.94 -7.778,-3.879 -11.668,-5.819c5.93,-5.13 6.127,-4.689 9.89,-12.041c4.473,-8.741 39.042,-38.326 47.916,-57.796Z" style="fill:#201f1e;"/><path d="M458.96,60.738c6.851,2.636 13.703,5.271 20.554,7.907c-8.973,25.706 -14.679,20.566 -49.959,61.565l-6.987,-14.273c21.694,-27.991 28.773,-22.053 37.504,-50.705l-1.112,-4.494Z" style="fill:#201f1e;"/><path d="M504.89,95.681c1.302,1.837 2.604,3.673 3.906,5.51c-7.66,21.705 -39.985,52.9 -45.71,59.336c-5.317,5.977 -6.166,5.37 -12.095,10.5c-5.396,-5.874 -4.614,-5.907 -8.722,-13.368c-1.316,-1.671 42.405,-52.032 62.621,-61.979Z" style="fill:#0a0a09;"/><path d="M479.514,68.646c6.857,4.66 6.859,3.79 12.497,9.917c-25.26,36.484 -26.707,34.407 -56.994,64.778c-1.821,-4.377 -3.641,-8.753 -5.462,-13.13c31.777,-43.422 39.129,-37.143 49.959,-61.565Z" style="fill:#0e0c0c;"/><path d="M748.753,1018.868c0.875,2.784 1.751,5.568 2.626,8.352c-5.592,19.227 0.923,46.863 -9.403,62.11c-6.723,9.927 -1.967,10.759 5.466,17.559c0.308,0.282 0.345,18.364 -9.772,16.754c-1.309,-0.208 -2.844,-0.777 -3.086,-0.867c-9.425,-3.492 -8.502,-10.589 -9.277,-11.554c5.911,-9.653 9.599,-9.114 7.93,-41.644c4.312,-11.084 3.635,-10.897 2.908,-23.059c2.357,-7.857 2.2,-7.358 6.072,-14.688c3.228,-4.654 2.665,-4.475 6.535,-12.963Z" style="fill:#ab7a29;"/><path d="M258.472,211.487l11.561,13.461c-11.505,13.844 -12.741,11.841 -24.686,25.471c-12.488,14.249 -14.671,10.363 -28.938,22.191l-12.312,-3.639c1.187,-0.755 2.82,1.622 4.007,0.868c5.019,-3.189 -0.533,-9.768 50.369,-58.352Z" style="fill:#393937;"/><path d="M302.044,262.72c2.531,3.004 23.677,28.105 31.783,37.395l-4.005,5.593c-12.549,-4.129 -48.455,-14.151 -52.68,-15.33l1.655,-4.03c1.696,-2.081 7.668,-9.409 23.248,-23.628Z" style="fill:#2a2a2a;"/><path d="M127.647,110.1c0.165,0.837 -18.685,4.781 -24.531,15.542c-3.865,7.115 -5.677,7.308 -9.683,14.798c-15.23,-26.669 -38.902,-53.673 -10.212,-43.841c6.151,2.108 40.867,12.442 44.426,13.501Z" style="fill:#2d2e2d;"/><path d="M270.033,224.949l8.006,9.993c-14.561,25.049 -18.832,20.693 -33.077,45.602c-9.518,-2.644 -19.035,-5.289 -28.553,-7.933c13.735,-12.261 10.095,-12.391 25.324,-24.408c13.898,-10.967 16.794,-9.411 28.3,-23.254Z" style="fill:#0d0c0b;"/><path d="M520.27,119.782c1.145,1.773 2.29,3.546 3.435,5.319l-3.435,7.925c-4.549,19.561 -23.311,28.13 -41.307,48.655l-16.304,-4.834c47.246,-54.818 48.392,-54.41 57.611,-57.065Z" style="fill:#080806;"/><path d="M278.039,234.942c4.793,5.21 9.587,10.42 14.38,15.63c-17.83,18.925 -17.595,18.594 -17.832,19.047c-1.386,2.651 -1.219,7.382 -3.84,8.159c-2.399,0.712 -3.596,-4.013 -5.802,-5.298c-8.103,-4.72 -4.035,3.362 -3.979,13.621l-16.004,-5.557c11.435,-25.402 16.506,-20.906 33.077,-45.602Z" style="fill:#343434;"/><path d="M292.419,250.571c3.208,4.049 6.417,8.099 9.625,12.148c-13.704,16.355 -20.091,23.212 -23.248,23.628l-1.655,4.03c-5.392,-1.426 -10.784,-2.851 -16.176,-4.277c-0.056,-10.259 -4.124,-18.34 3.979,-13.621c2.207,1.285 3.404,6.01 5.802,5.298c2.621,-0.778 2.453,-5.508 3.84,-8.159c0.237,-0.453 0.002,-0.122 17.832,-19.047Z" style="fill:#0e0e0e;"/><path d="M1648.239,872.211c8.179,-5.323 8.54,-1.382 17.963,-0.324c3.077,11.244 3.415,10.848 4.808,22.426c-6.011,14.952 -7.573,13.266 -18.131,24.717l-5.313,-5.461c6.562,-22.159 15.851,-25.226 0.673,-41.359Z" style="fill:#a87b2a;"/><path d="M1110.991,441.146c0.049,0.407 3.517,0.176 -0.644,11.342c0,0 -8.28,8.944 -9,9.721c-2.547,-2.649 -27.333,-28.433 -27.702,-37.634c-0.268,-6.674 3.582,-1.517 37.346,16.57Z" style="fill:#ededeb;"/><path d="M637.389,1212.2c-6.069,8.414 -4.956,15.15 -13.292,9.815c-6.694,-4.284 -4.758,-30.391 0.351,-33.399c14.615,-8.604 9.135,5.591 12.941,23.583Z" style="fill:#a47c29;"/><path d="M1092.995,659.535c0.377,-1.804 4.009,-19.172 16.647,-13.324c18.434,8.531 -6.742,43.507 -16.647,13.324Z" style="fill:#82683b;"/><path d="M543.538,153.035l9.554,12.016c-14.561,17.996 -20.017,30.175 -30.762,9.34c16.708,-16.632 16.664,-16.406 21.208,-21.356Z" style="fill:#2c2c2c;"/><path d="M504.051,1129.3c-3.8,11.185 -3.53,10.917 -3.967,22.845c-0.303,0.618 -17.879,32.146 -7.733,0.73c1.547,-4.791 -1.007,-3.992 -9.608,-10.252c5.985,-12.505 3.346,-18.382 16.061,-17.065c3.355,0.348 2.498,1.781 5.247,3.742Z" style="fill:#a77d25;"/><path d="M532.726,1279.88c0.322,9.332 5.267,9.131 1.314,38.027c-0.428,3.125 -10.773,13.168 -10.643,4.971c0.642,-40.443 6.318,-42.113 9.329,-42.998Z" style="fill:#ab772d;"/><path d="M1648.239,872.211c18.549,18.99 19.536,34.54 3.14,48.364c-1.639,-0.619 -11.819,-2.938 -9.437,-16.809c0,0 0.787,-21.332 0.856,-23.187c1.814,-2.789 3.627,-5.578 5.441,-8.368Z" style="fill:#a87b2a;"/><path d="M143.699,189.639c5.222,7.061 4.847,6.886 11.65,12.265c-6.731,8.816 -6.316,8.606 -15.023,15.345l-1.359,4.999l-9.254,-16.962c6.043,-9.263 5.81,-9.285 13.986,-15.647Z" style="fill:#4b494a;"/><path d="M130.441,130.507c0.509,1.636 5.915,19.016 -11.046,17.678c-12.161,-0.959 -9.762,-28.919 11.046,-17.678Z" style="fill:#bea366;"/><path d="M543.538,153.035c-14.673,11.8 -27.743,24.208 -40.138,36.873l22.094,8.288c10.716,-9.548 20.298,-20.159 27.599,-33.145l-9.554,-12.016Z" style="fill:#080806;"/><path d="M863.408,1032.612c3.561,5.038 4.128,4.045 6.896,9.756c0.438,0.903 20.953,43.933 -5.48,11.283c-0.703,-0.868 -0.571,-0.876 -7.75,-11.825l1.443,-4.607l4.891,-4.607Z" style="fill:#a87b27;"/><path d="M1448.946,567.024c-1.06,-0.087 -1.388,2.412 -2.447,2.326c-7.247,-0.593 -18.283,-34.988 -5.618,-35.535c9.732,-0.42 2.158,13.989 8.066,33.209Z" style="fill:#aa7729;"/><path d="M430.117,1258.404c18.402,18.794 4.765,29.716 4.621,29.894c-0.965,-1.193 -4.793,0.826 -6.289,-7.769c-2.293,-13.172 -7.828,-8.48 -9.887,-12.713c-0.544,-1.118 3.1,-9.341 3.694,-8.941c0.282,0.191 -2.589,-0.292 -0.468,4.646c2.78,6.473 2.802,-1.721 8.329,-5.117Z" style="fill:#ad7822;"/><path d="M1437.324,1023.553c5.816,5.298 5.455,5.272 11.476,10.454c5.275,4.54 7.878,7.968 1.259,10.004c-2.091,0.643 -2.54,-5.835 -4.631,-5.192c-14.717,6.425 -18.693,-4.533 -19.306,-6.223c-3.366,-9.278 10.104,-9.06 11.202,-9.042Z" style="fill:#d6ab50;"/><path d="M1360.286,877.851l-3.428,3.627c-11.471,7.57 -11.524,6.715 -24.336,9.975c-0.22,-3.049 -11.801,-15.191 7.878,-14.243c10.174,0.49 10.064,-2.277 19.886,0.641Z" style="fill:#a97b1f;"/><path d="M1604.905,651.426c6.864,8.477 5.25,9.684 12.937,17.356c-2.671,7.316 -0.899,7.461 -3.337,14.401l-11.67,-1.82c1.029,-15.139 1.003,-14.694 2.07,-29.937Z" style="fill:#b9922d;"/><path d="M1172.069,416.205c-0.358,0.456 -4.478,5.704 -4.478,5.704c-2.794,3.826 -24.325,11.359 -19.885,-2.484c4.746,-14.794 22.62,-4.248 24.363,-3.22Z" style="fill:#d6ab50;"/><path d="M1093.852,932.034c5.507,2.586 6.778,1.278 7.898,8.42l-4.044,3.833c-24.269,-3.148 -24.145,-2.951 -24.453,-3.414c-5.279,-7.957 18.838,-8.778 20.598,-8.838Z" style="fill:#a87b27;"/><path d="M1356.858,881.479c-1.206,7.588 -2.901,6.468 -4.414,14.367c-11.359,6.966 -11.795,4.165 -24.196,7.813c3.397,-11.899 4.16,-11.161 4.274,-12.204c12.812,-3.26 12.865,-2.405 24.336,-9.975Z" style="fill:#a87b2a;"/><path d="M1252.523,242.645c19.089,21.832 3.313,28.998 -0.522,24.58c-9.011,-10.384 -6.945,-12.62 0.522,-24.58Z" style="fill:#d6ab50;"/><path d="M1348.335,562.967c-29.169,-13.161 2.913,-12.747 3.826,-12.536c2.363,0.546 10.906,9.47 9.468,12.246c-0.9,1.739 -3.953,0.731 -4.853,2.469c-2.814,-0.727 -5.627,-1.453 -8.441,-2.18Z" style="fill:#aa732a;"/><path d="M1074.113,517.181l-6.777,10.372l-11.64,5.949c-0.317,-0.358 -10.345,-9.585 -10.39,-16.352c-0.005,-0.727 8.519,-14.818 10.237,-17.499c4.472,-6.977 14.003,-7.065 16.38,0.89l2.19,16.64Z" style="fill:#010101;"/><path d="M1098.112,927.071c1.564,-2.201 9.752,-10.701 11.008,-9.848c12.931,8.781 4.224,12.603 -7.37,23.23c-1.12,-7.142 -2.391,-5.833 -7.898,-8.42l4.261,-4.963Z" style="fill:#a87b27;"/><path d="M1602.423,942.143c1.062,2.311 13.26,-3.865 14.892,7.338c0.831,5.708 -2.624,19.315 -5.628,24.25c-4.405,7.236 -28.794,-7.059 -31.905,-15.008c-8.325,-39.926 9.985,-35.68 22.642,-16.58Z" style="fill:#a87b2a;"/><path d="M554.863,1065.82c-20.754,6.349 -23.888,6.607 -23.776,-0.876c0.021,-1.384 0.116,-7.667 12.805,-9.302c1.125,-0.145 3.12,-0.402 10.97,10.178Z" style="fill:#a87a2a;"/><path d="M437.926,78.742c-0.96,0.977 -12.528,12.739 -16.072,0.874c-2.743,-9.182 3.467,-10.901 4.297,-11.13c8.694,-2.406 8.522,0.853 11.775,10.256Z" style="fill:#beaa7f;"/><path d="M504.051,1129.3c4.007,7.501 10.342,12.974 10.426,13.869c0.165,1.756 -2.46,2.851 -2.295,4.607l-3.985,4.607l-3.997,4.607l-4.116,-4.843c0.436,-11.928 0.167,-11.66 3.967,-22.845Z" style="fill:#ae7a1d;"/><path d="M1332.522,891.453c-0.113,1.043 -0.876,0.305 -4.274,12.204c-1.209,0.944 -14.136,11.038 -16.353,9.398c-0.744,-0.55 0.502,-0.885 0.736,-12.607c3.061,-0.835 2.909,-1.011 19.89,-8.995Z" style="fill:#a87b2a;"/><path d="M1320.387,561.344c5.107,4.715 5.127,4.085 9.043,10.202c-3.127,3.638 -6.255,7.277 -9.382,10.915c-7.926,-9.541 -8.271,-12.209 0.339,-21.117Z" style="fill:#d6ab50;"/><path d="M1246.917,899.304c10.326,-9.235 17.089,-9.526 18.735,-7.455c1.431,1.8 17.1,18.872 -9.517,17.859l-5.603,-0.898c-1.205,-3.168 -2.41,-6.337 -3.615,-9.505Z" style="fill:#a87b2a;"/><path d="M748.815,1009.727c2.062,-1.814 0.074,-5.219 5.289,-4.653c0.221,0.024 2.476,0.269 2.724,0.59c8.546,11.074 -4.132,20.57 -5.449,21.555c-0.875,-2.784 -1.751,-5.568 -2.626,-8.352l0.062,-9.141Z" style="fill:#a87b27;"/><path d="M1065.089,584.861c-6.896,-0.604 -6.922,-0.328 -7.448,-0.652c-0.81,-0.498 -14.604,-21.478 7.768,-9.663c-0.107,3.438 -0.213,6.877 -0.32,10.315Z" style="fill:#010101;"/><path d="M1311.198,191.226c0.705,1.322 12.399,1.217 13.104,2.539c1.456,2.732 1.379,17.982 1.269,19.048c-0.758,7.368 -16.449,5.502 -20.534,10.994c-12.814,17.227 -70.023,21.567 -55.055,-4.011c6.837,-1.86 55.313,-23.811 61.215,-28.571Z" style="fill:#d6ab50;"/><path d="M1647.733,415.228c-0.344,-7.878 -3.28,-11.576 3.854,-11.693c9.84,-0.161 6.031,27.763 -3.854,11.693Z" style="fill:#d6ab50;"/><path d="M631.158,976.621c1.245,10.553 1.196,12.375 13.789,15.21c-1.994,1.174 -2.034,4.973 -4.028,6.147c-5.191,3.057 -10.989,-1.977 -11.751,-2.638c-3.435,-2.982 -1.209,-3.63 0.639,-8.775c0,0 1.243,-9.149 1.351,-9.944Z" style="fill:#d7ac4d;"/><path d="M1518.318,367.16c-1.685,1.009 0.722,5.405 -0.963,6.414c-3.347,2.003 -7.67,-0.22 -11.313,0.933c-2.798,0.885 -1.123,3.184 -4.021,3.919c-4.412,1.12 -4.038,-1.874 -8.117,-0.839c7.573,-9.012 7.288,-9.369 8.179,-9.733c5.098,-2.082 11.137,1.387 16.235,-0.695Z" style="fill:#a8742b;"/><path d="M1348.604,160.817c2.726,1.399 5.452,2.797 8.178,4.196c-7.565,4.977 -7.179,5.597 -16.205,5.385c0.853,-2.028 -1.031,-2.022 -0.277,-3.815c3.301,-7.854 7.382,-5.126 8.304,-5.766Z" style="fill:#d6ab50;"/><path d="M879.652,876.173c-0.691,0.748 -11.906,12.88 -11.904,-0.462c0,-1.086 2.309,-21.54 11.904,0.462Z" style="fill:#a67d1a;"/><path d="M1623.414,668.766c1.306,0.438 15.591,5.232 12.01,13.736c-0.488,1.159 -2.671,0.223 -3.159,1.382c-6.741,-5.844 -5.852,-6.397 -8.851,-15.118Z" style="fill:#c98a35;"/><path d="M1040.75,548.01c1.655,3.811 3.477,1.444 5.247,5.519c0.144,0.332 0.865,1.993 -0.888,4.518c-1.544,2.224 -19.996,3.764 -4.358,-10.036Z" style="fill:#010101;"/><path d="M1195.602,360.012c0.734,-19.33 12.737,-2.85 9.377,-0.655c-1.954,1.276 -4.703,0.039 -6.657,1.315l-2.72,-0.661Z" style="fill:#d6ab50;"/><path d="M445.745,1239.465c0.74,0.772 9.251,9.655 9.251,9.655c1.518,4.778 -13.85,8.22 -9.251,-9.655Z" style="fill:#a87b27;"/><path d="M1122.082,581.635c7.256,-1.8 7.463,-2.549 7.81,-1.937c1.104,1.943 -1.749,4.926 -0.688,6.9c1.32,2.456 5.319,1.716 6.639,4.171c-4.893,4.079 -6.6,4.928 -8.813,-1.523c-1.554,-4.531 -2.343,-3.604 -4.948,-7.611Z" style="fill:#d6ab50;"/><path d="M736.146,1046.518c0.728,12.161 1.404,11.975 -2.908,23.059c-1.052,-12.249 -1.561,-12.236 2.908,-23.059Z" style="fill:#b07828;"/><path d="M1189.249,300.167c-5.976,4.229 -6.272,6.835 -8.798,3.348c-2.556,-3.528 1.066,-10.023 6.241,-8.115c1.555,0.573 1.002,4.193 2.557,4.767Z" style="fill:#010018;"/><path d="M1085.926,957.589c7.715,2.187 7.415,2.214 15.298,0.72c-1.104,1.678 2.444,4.424 1.34,6.101c-2.983,4.535 -15.495,-5.871 -16.638,-6.821Z" style="fill:#a87b27;"/><path d="M836.207,1000.36c8.611,-3.787 15.44,-14.422 11.299,-4.969c-2.635,6.016 -9.87,8.261 -12.505,14.277c0.402,-3.103 0.804,-6.205 1.206,-9.308Z" style="fill:#af7a1a;"/><path d="M1329.43,571.546l-0.728,4.98c-4.513,9.264 -4.073,9.833 -4.863,9.983c-3.089,0.586 -0.762,-4.623 -3.791,-4.048c3.127,-3.638 6.255,-7.277 9.382,-10.915Z" style="fill:#d6ab50;"/><path d="M1425.506,111.383c2.748,1.269 5.495,2.538 8.243,3.807c-1.945,1.383 -2.774,8.888 -3.865,9.101c-17.377,3.396 -11.42,-6.548 -4.378,-12.908Z" style="fill:#d6ab50;"/><path d="M1481.884,995.615c5.459,-0.27 5.124,0.139 10.453,-1.602c-1.049,1.974 1.745,4.318 -2.806,5.278c-4.663,0.984 -3.609,-1.735 -7.647,-3.676Z" style="fill:#d6ab50;"/><path d="M1526.847,881.977c0.158,-9.715 -0.351,-9.9 0.171,-10.492c4.898,-5.549 3.378,4.038 3.305,4.5c-0.647,4.085 -1.704,2.936 -3.476,5.992Z" style="fill:#d6ab50;"/><path d="M1195.602,360.012l2.72,0.661c0.041,0.443 1.657,17.789 -3.36,4.051c-0.536,-1.467 1.176,-3.244 0.64,-4.711Z" style="fill:#d6ab50;"/><path d="M927.996,659.244c0.727,-0.095 14.151,-1.853 8.059,4.941c-0.974,1.086 -0.867,0.368 -8.059,-4.941Z" style="fill:#d6ab50;"/><path d="M735.991,1009.423c1.804,-1.68 -1.062,-2.801 0.742,-4.48c0.298,-0.278 2.324,-2.164 4.777,-0.659c1.953,1.198 2.057,4.853 4.01,6.051c-3.177,-0.304 -6.353,-0.608 -9.53,-0.912Z" style="fill:#ac7b24;"/><path d="M1077.69,538.784c-0.491,8.745 0.133,9.413 -0.528,9.407c-0.474,-0.004 -5.148,-0.047 -4.941,-3.729c0.158,-2.805 5.312,-2.874 5.469,-5.678Z" style="fill:#d6ab50;"/><path d="M1094.048,711.782c4.086,0.467 8.172,0.933 12.259,1.4c-4.086,-0.467 -8.172,-0.933 -12.259,-1.4Z" style="fill:#ce9845;"/><path d="M1331.572,614.427c9.516,-1.608 9.502,-2.081 10.277,-1.737c1.406,0.624 -2.438,4.399 -1.031,5.023c-4.989,-1.17 -4.742,-0.659 -9.246,-3.286Z" style="fill:#b48830;"/><path d="M677.304,1056.262c0,-8.934 -0.461,-9.084 0,-9.649c4.849,-5.949 1.881,2.033 0,9.649Z" style="fill:#a6782a;"/><path d="M1186.485,353.09c-0.157,4.561 0.12,4.681 -3.555,6.873c1.185,-2.291 2.37,-4.582 3.555,-6.873Z" style="fill:#d19844;"/><path d="M1618.528,641.475c-3.306,-8.826 -3.995,-8.844 -3.56,-9.506c5.37,-8.174 3.644,8.684 3.56,9.506Z" style="fill:#bc882e;"/><path d="M1348.335,562.967c2.814,0.727 5.627,1.453 8.441,2.18c-4.898,0.229 -4.976,1.414 -8.441,-2.18Z" style="fill:#a87523;"/><path d="M1699.885,881.1c4.993,2.998 7.21,2.474 5.233,8.93c-1.396,-2.169 -0.33,-2.43 -1.744,-4.627c-0.243,-0.378 0,-0 -3.489,-4.302Z" style="fill:#f1bf5f;"/><path d="M636.817,1066.989c-4.031,0.671 -8.062,1.342 -12.092,2.013c4.031,-0.671 8.062,-1.342 12.092,-2.013Z" style="fill:#a77a27;"/><path d="M333.827,300.115c-0.672,6.991 -0.184,6.909 -0.672,6.991c-1.171,0.195 -2.161,-1.593 -3.333,-1.398l4.005,-5.593Z" style="fill:#919191;"/><path d="M1329.43,571.546c0.435,0.173 5.442,2.168 5.442,2.168c1.455,4.842 -2.189,0.998 -6.17,2.812l0.728,-4.98Z" style="fill:#d6ab50;"/><path d="M672.542,1203.812c1.367,1.215 3.79,-1.972 5.157,-0.757c1.652,1.468 -0.201,4.655 -0.395,4.99c-2.269,3.905 -1.538,-1.367 -4.762,-4.232Z" style="fill:#ad7b22;"/><path d="M1065.089,584.861c0.107,-3.438 0.213,-6.877 0.32,-10.315c1.062,3.588 6.858,4.879 -0.32,10.315Z" style="fill:#03010a;"/><path d="M1253.24,155.086c3.895,-0.236 3.643,-0.021 7.074,1.614c-2.358,-0.538 -4.716,-1.076 -7.074,-1.614Z" style="fill:#272727;"/></g><path d="M1425.506,111.383c11.368,-27.602 16.142,-23.183 74.119,-99.797c0.887,-1.171 15.313,-20.235 15.876,-6.828c0.094,2.234 0.11,74.622 0.966,83.15c1.599,26.489 -5.547,32.278 14.546,45.097c46.485,29.657 45.672,31.529 78.373,85.6c93.406,154.445 95.892,153.177 99.508,168.923c1.098,4.782 -20.976,78.819 -37.323,81.19c-35.953,5.216 -39.089,12.973 -67.447,-13.382c-62.301,-57.902 -60.477,-60.001 -62.355,-62.332c-5.273,-6.546 -36.298,-0.769 -59.906,1.953c-16.265,-6.177 -70.731,-33.987 -75.667,-49.988c-0.729,-2.363 -0.301,-5.357 -1.742,-7.248c-0.714,-0.937 -2.482,1.704 -3.196,0.767l-3.978,3.393c-9.084,36.894 -18.015,43.802 8.885,67.074c25.167,21.772 22.584,25.143 49.089,111.569c27.478,89.597 32.322,98.579 18.298,100.672c-60.56,9.041 -66.731,7.109 -72.321,5.358c-29.455,-19.416 -28.666,-19.819 -56.874,-40.822l-2.948,4.848c1.736,3.935 1.86,3.532 48.439,70.974c1.845,2.672 3.764,5.451 5.758,8.34c20.191,24.673 29.553,11.281 74.525,-4.159c150.88,-53.296 148.01,-48.757 151.969,-43.598c2.868,3.737 24.298,46.874 31.926,70.448c69.086,190.482 79.647,205.222 64.718,217.99c-0.771,0.659 -0.724,0.594 -9.777,8.016l-4.804,-7.931l-4.043,2.358l-4.043,0.213l-5.769,4.217l-2.316,5.173l-3.424,-0.566l-0.618,3.51l-8.327,1.014c-0.826,-1.18 0.69,-3.346 -0.136,-4.526c2.146,-12.15 4.066,-10.879 12.403,-18.695c8.541,-8.008 13.023,-1.995 17.227,-13.327c1.978,-6.455 -0.24,-5.932 -5.233,-8.93c-13.44,-0.372 -15.488,-4.82 -24.02,7.532l-4.856,5.681c-1.393,-11.578 -1.731,-11.182 -4.808,-22.426c-21.645,-88 -30.565,-115.272 -33.774,-125.082c-4.801,-21.123 -10.777,-37.98 -17.923,-63.623c2.438,-6.939 0.666,-7.085 3.337,-14.401c-7.687,-7.672 -6.073,-8.878 -12.937,-17.356c-1.067,15.243 -1.041,14.798 -2.07,29.937c-123.781,22.272 -141.214,26.736 -181.888,24.995l-3.818,5.782c-6.949,1.896 -62.972,7.099 -40.515,-23.672c-1.854,-1.649 -9.848,-4.071 -2.832,-14.045c3.236,-4.6 4.13,-7.79 -0.947,-7.011c-7.836,1.203 -14.476,-4.119 -20.39,-5.913l-5.48,-1.713c-3.094,-38.69 -4.417,-38.31 -6.147,-42.072c-1.406,-0.624 2.438,-4.399 1.031,-5.023c-0.775,-0.344 -0.761,0.129 -10.277,1.737c-18.687,-20.622 -27.084,-1.064 -43.953,-9.38c-5.782,-2.85 -5.578,-2.196 -11.986,-1.641l-48.513,0l-4.043,4.607c-0.66,17.766 -9.651,4.438 -24.401,9.129c-5.161,1.641 -30.484,-3.589 -36.24,4.691c-8.62,12.4 -12.363,3.399 -13.801,-11.923l-2.368,-6.004c0.405,-1.276 0.321,-1.208 2.417,-12.906c2.15,0.394 3.517,3.311 5.667,3.705c3.883,0.712 22.442,1.466 24.395,1.546c4.995,0.203 3.089,-4.557 8.213,-5.2c1.017,-0.128 -1.149,6.201 11.869,5.431c18.183,-1.076 19.176,-2.118 28.292,-20.203l4.043,-0c8.291,5.378 36.998,11.234 40.342,10.384c16.143,-4.102 25.738,12.441 48.545,-4.202c3.029,-0.575 0.702,4.634 3.791,4.048c0.791,-0.15 0.35,-0.719 4.863,-9.983c3.981,-1.815 7.625,2.03 6.17,-2.812l-5.442,-2.168c-3.916,-6.116 -3.936,-5.486 -9.043,-10.202c-4.012,-19.729 -11.385,-12.749 -35.13,-37.416c-0.939,-0.976 -24.522,-9.524 -6.146,-13.424c1.567,-0.333 37.855,16.709 73.233,29.457c4.981,1.795 3.388,5.899 60.417,28.218c1.447,0.566 21.864,8.557 19.107,-0.834c-4.015,-13.673 -4.587,-13.106 -8.111,-27.279c-17.672,-44.183 -20.535,-77.474 -32.643,-96.186c-7.968,-12.313 -15.155,-29.303 -16.275,-31.606c-12.32,-19.934 -13.967,-21.846 -15.41,-23.522c-18.906,-21.953 -5.802,-26.968 45.345,-167.172c6.631,-18.176 10.063,41.126 17.622,82.914c6.389,35.32 11.577,33.343 39.916,49.048c25.389,12.252 26.581,10.002 52.067,-2.106c30.283,-14.386 31.853,-20.686 38.366,-12.184c68.604,89.567 70.07,117.189 90.844,114.912c19.408,-2.127 25.03,5.836 28.729,-10.937c7.429,-33.685 19.534,-35.384 3.893,-64.95c-34.01,-56.432 -33.566,-56.202 -51.097,-84.192c-68.267,-105.29 -67.294,-105.965 -73.23,-115.109c-19.29,-18.473 -19.537,-17.255 -40.781,-32.663c-19.009,-16.415 -14.352,-30.539 -13.932,-85.499l-3.51,-3.151c-16.959,4.744 -41.956,73.775 -59.913,57.524l-8.243,-3.807Zm-77.171,451.584c3.465,3.594 3.543,2.408 8.441,2.18c0.9,-1.739 3.953,-0.731 4.853,-2.469c1.437,-2.777 -7.106,-11.701 -9.468,-12.246c-0.913,-0.211 -32.995,-0.624 -3.826,12.536Zm80.469,-69.509c-3.139,4.919 -3.188,2.103 -2.821,9.104c0.324,6.175 5.359,3.46 6.451,4.141c1.105,0.689 1.706,-4.744 1.761,-4.908c4.296,-12.848 -4.192,-4.526 -5.391,-8.337Z" style="fill:#a87b2a;"/><g id="corpo"><path d="M828.216,603.402c22.33,15.165 23.881,9.303 200.473,66.715c8.079,2.635 83.456,27.217 101.315,31.606c14.786,3.634 7.603,-7.664 10.606,-28.67l7.525,4.852l0.867,4.607l-0.581,4.607l0.857,4.607l-1.666,4.607c1.037,4.827 2.346,21.425 2.494,23.295c-4.486,32.207 12.302,19.597 40.69,16.247c0.437,-0.052 26.082,2.384 28.349,2.6c6.49,0.616 5.466,3.206 12.017,4.086c5.271,0.708 9.3,-4.54 12.128,3.399c7.982,22.41 -24.169,-0.203 -36.161,16.558c-0.793,1.108 -0.733,1.027 -9.896,13.859c-3.569,-5.22 -4.76,-2.362 -7.545,3.058c9.45,18.223 9.568,17.569 19.073,35.408l-5.899,-0.573c-6.208,0.783 -5.828,1.57 -12.092,2.36c-0.609,0.077 -0.567,0.038 -7.652,0.513l3.573,-7.047c-0.004,-2.31 4.047,-2.868 4.043,-5.178c-0.003,-1.4 -0.005,-2.704 -15.332,-1.071c-1.642,0.175 -1.207,0.37 -8.124,7.65l-6.819,-4.148l-2.233,-0.318c-2.213,-0.928 -4.427,-1.856 -6.64,-2.783c-22.936,32.388 -49.495,52.859 -54.784,77.591c-29.786,2.342 -211.13,-71.377 -220.47,-60.218c-7.128,8.516 -61.696,152.379 -77.534,156.624c-42.468,11.383 -61.27,14.767 -89.1,22.294c-10.715,2.171 -19.733,6.661 -30.448,8.832c-157.099,34.942 -159.844,29.026 -171.921,36.851c-3.036,1.967 -2.418,2.891 -81.658,174.613l-1.143,2.019c-1.933,3.837 -10.718,21.275 -22.991,48.698c-20.108,28.747 -29.169,12.87 -59.357,38.342c-3.319,2.801 -36.007,30.382 -40.812,36.033c-10.771,12.669 -14.176,12.767 -24.677,-0.22c33.083,-100.799 30.811,-101.269 34.041,-109.829c9.244,-24.502 65.264,-31.126 78.812,-47.433c5.69,-6.849 50.764,-176.685 54.871,-192.159c3.24,-12.206 4.977,-13.119 86.752,-43.706c43.44,-16.248 41.734,-21.635 51.934,-49.566c55.444,-151.831 57.27,-150.988 57.815,-165.203c30.158,-39.947 28.566,-58.255 28.072,-63.948c19.099,10.209 116.825,-68.912 149.802,-65.217c0.835,0.094 0.698,-0.388 9.425,-5.243Z" style="fill:#d6ab50;"/><path d="M1511.103,146.316c21.243,15.408 21.491,14.19 40.781,32.663c5.935,9.144 4.963,9.819 73.23,115.109c17.531,27.991 17.087,27.761 51.097,84.192c15.641,29.566 3.536,31.264 -3.893,64.95c-3.699,16.773 -9.321,8.81 -28.729,10.937c-20.774,2.277 -22.239,-25.345 -90.844,-114.912c-6.513,-8.503 -8.083,-2.203 -38.366,12.184c-25.486,12.107 -26.679,14.358 -52.067,2.106c-28.34,-15.705 -33.527,-13.729 -39.916,-49.048c-7.559,-41.789 -10.992,-101.09 -17.622,-82.914c-51.147,140.204 -64.251,145.22 -45.345,167.172c1.443,1.676 3.09,3.587 15.41,23.522c1.121,2.304 8.308,19.293 16.275,31.606c12.108,18.712 14.971,52.003 32.643,96.186c3.524,14.173 4.096,13.606 8.111,27.279c2.757,9.39 -17.66,1.4 -19.107,0.834c-57.029,-22.318 -55.436,-26.423 -60.417,-28.218c-35.377,-12.748 -71.665,-29.79 -73.233,-29.457c-18.376,3.9 5.207,12.448 6.146,13.424c23.746,24.666 31.118,17.687 35.13,37.416c-8.61,8.907 -8.264,11.576 -0.339,21.117c-22.807,16.642 -32.402,0.1 -48.545,4.202c-3.344,0.85 -32.051,-5.007 -40.342,-10.384l-4.043,0c-9.115,18.085 -10.109,19.127 -28.292,20.203c-13.019,0.77 -10.852,-5.559 -11.869,-5.431c-5.124,0.643 -3.218,5.403 -8.213,5.2c-1.953,-0.079 -20.512,-0.834 -24.395,-1.546c-2.15,-0.394 -3.517,-3.311 -5.667,-3.705c-2.096,11.697 -2.012,11.629 -2.417,12.906c-3.32,0.27 -5.794,-3.879 -12.13,8.918l-4.961,6.49c-4.815,-4.838 -35.827,-35.992 -61.319,-58.981c-17.887,-16.131 -7.53,-20.328 -0.519,-32.781l6.777,-10.372c18.779,-32.375 20.671,-30.883 27.234,-54.971c0.72,-0.778 9,-9.721 9,-9.721c4.162,-11.166 0.693,-10.935 0.644,-11.342c12.491,-5.509 9.983,-9.341 83.733,-136.413c38.507,-69.684 37.655,-70.994 55.259,-85.16c2.536,3.592 14.797,27.294 25.764,1.826l-2.037,-4.15l1.922,-5.717l4.043,-3.274l4.043,-2.317l4.043,-1.317c2.352,0.106 1.666,-1.614 4.043,-1.507c0.651,0.029 0.593,0.126 8.003,1.697c0.539,0.686 6.43,8.18 6.938,8.357c6.042,2.104 8.904,6.882 9.662,-0.487c0.11,-1.066 1.098,-10.674 -0.358,-13.405c-0.705,-1.322 -3.235,0.145 -3.94,-1.177c3.018,-12.454 1.246,-15.898 12.269,-17.423c0.637,-0.088 0.47,-0.287 3.011,-6.729c3.354,-8.504 5.33,-4.655 13.189,-3.552c9.026,0.212 8.641,-0.408 16.205,-5.385c18.461,12.407 65.447,-0.766 88.859,7.217c7.168,2.444 37.755,-2.701 40.185,-2.725c0.058,-0.001 5.494,2.889 9.821,-2.858c0.459,-0.609 -0.167,-0.694 -2.326,-9.676c7.281,-8.472 8.621,-5.552 17.781,-10.655Z" style="fill:#d6ab50;"/><path d="M1146.265,603.905c0.789,2.001 1.579,4.003 2.368,6.004c1.438,15.322 5.181,24.322 13.801,11.923c5.756,-8.28 31.079,-3.05 36.24,-4.691c14.751,-4.691 23.741,8.637 24.401,-9.129l4.043,-4.607l48.513,0c6.408,-0.555 6.204,-1.209 11.986,1.641c16.87,8.316 25.266,-11.242 43.953,9.38c4.504,2.627 4.257,2.116 9.246,3.286c1.73,3.763 3.054,3.383 6.147,42.072c5.779,75.534 4.582,77.267 8.866,79.393c4.865,2.414 56.925,0.355 198.725,-20.34c11.393,0.478 12.155,0.506 17.321,11.783c-14.707,48.075 -47.108,277.012 -58.69,286.654c-13.621,11.339 -96.813,59.155 -128.687,82.425c-5.8,-7.06 -5.063,-7.089 -7.842,-16.41l4.087,1.524c1.237,-0.835 2.806,2.547 4.043,1.712c7.817,-5.278 5.437,-7.22 9.325,-16.173c6.101,-14.051 21.336,-44.204 19.172,-47.581c-0.843,-1.315 -3.443,1.425 -4.286,0.109c34.523,-21.289 36.056,-17.599 51.346,-32.599c17.113,-54.285 16.455,-54.012 31.179,-109.206c8,-32.985 8.391,-32.49 17.055,-65.329c2.202,-8.347 -20.76,0.502 -22.463,1.163c-31.417,12.195 -171.625,57.427 -196.738,65.424c-19.39,6.175 -85.706,-96.622 -92.141,-105.957c9.163,-12.832 1.13,-20.099 1.922,-21.207c11.991,-16.762 43.674,14.536 35.692,-7.874c-2.828,-7.939 -11.665,-2.29 -16.936,-2.998c-6.551,-0.88 -14.556,3.211 -21.046,2.595c-2.267,-0.215 -6.741,-6.997 -7.178,-6.945c-28.387,3.35 -46.711,11.615 -42.225,-20.592c-0.148,-1.87 0.144,-17.465 -0.893,-22.292c-1.241,0.091 -0.895,-5.747 -0.895,-5.747l0.704,-5.382l-0.059,-3.922l-1.107,-2.509l-4.604,-6.449c2.575,-34.35 3.633,-34.264 2.779,-37.077c0,0 -13.078,-15.329 -14.215,-16.662l4.961,-6.49c6.336,-12.797 8.81,-8.648 12.13,-8.918Z" style="fill:#d6ab50;"/><path d="M1493.661,57.666c1.17,1.05 2.34,2.101 3.51,3.151c-0.42,54.96 -5.077,69.084 13.932,85.499c-9.159,5.103 -10.499,2.183 -17.781,10.655c-14.765,-6.098 -16.141,-3.419 -23.681,-13.376c-9.138,-12.067 -19.919,-7.14 -21.106,-8.077c-1.721,-1.359 -1.139,-4.823 -2.626,-6.502c-3.266,-3.689 -3.492,-0.414 -13.915,8.698c-0.531,2.28 -1.062,4.56 -1.594,6.84c-8.56,21.436 -14.402,12.059 -41.046,15.637c-2.402,0.322 -27.205,3.652 -30.115,-2.995c-0.653,-1.491 2.895,-2.806 2.242,-4.297c-4.293,2.64 -8.585,5.28 -12.878,7.919c-0.922,0.64 -5.004,-2.088 -8.304,5.766c-0.753,1.793 1.13,1.787 0.277,3.815c-7.86,-1.103 -9.836,-4.952 -13.189,3.552c-2.541,6.442 -2.374,6.641 -3.011,6.729c-11.022,1.525 -9.25,4.969 -12.269,17.423c-5.903,4.76 -5.466,4.852 -12.302,6.713c-7.41,-1.571 -7.352,-1.668 -8.003,-1.697c-2.376,-0.107 -1.69,1.613 -4.043,1.507l-4.043,1.317l-4.043,2.317l-4.043,3.274l-1.922,5.717l2.037,4.15c-10.967,25.468 -23.228,1.766 -25.764,-1.826c36.426,-29.387 36.161,-29.273 71.493,-60.065c37.669,-30.285 36.741,-33.03 47.578,-37.524c16.463,-6.827 17.98,1.044 34.076,-7.562c11.684,0.411 11.634,2.202 22.376,-3.039c-1.167,7.119 -2.153,11.834 3.751,8.827c1.915,-0.975 2.577,-4.045 4.492,-5.02c17.956,16.251 42.954,-52.78 59.913,-57.524Z" style="fill:#d6ab50;"/><path d="M1160.46,807.348l6.819,4.148l3.242,6.48c6.837,0.89 6.678,2.338 12.598,-0.834c7.085,-0.475 7.042,-0.436 7.652,-0.513c6.264,-0.79 5.884,-1.577 12.092,-2.36l5.899,0.573c14.007,30.614 13.307,27.028 26.538,57.697c3.695,7.904 7.923,18.861 11.617,26.765c1.205,3.168 2.41,6.337 3.615,9.505c-0.017,3.265 -0.033,6.531 -0.05,9.796c-8.374,-1.618 -16.061,-3.103 -95.263,-53.406c-15.192,-9.649 -1.611,-30.266 5.241,-57.851Z" style="fill:#d6ab50;"/><path d="M1427.259,129.276c10.423,-9.111 19.138,-8.225 22.403,-4.536c1.487,1.68 5.189,1.343 6.909,2.702c1.187,0.938 10.019,-0.854 19.157,11.213c7.54,9.957 20.61,1.563 35.375,7.662c2.159,8.981 -11.494,25.042 -11.953,25.651c-4.327,5.747 -10.68,5.233 -13.907,5.138c-2.43,-0.071 -33.601,3.934 -40.769,1.49c-7.219,-2.461 -17.263,4.024 -27.437,4.216c-22.822,0.429 -85.675,23.372 -98.444,14.79c-2.726,-1.399 -13.04,-8.498 -15.766,-9.896c-0.247,-8.589 39.736,-50.485 52.985,-41.389c0.653,1.491 9.317,-2.207 8.347,-0.96c-5.017,6.455 20.477,-4.394 25.862,-4.644c26.806,-1.245 27.35,21.628 35.91,0.192l1.327,-11.629Z" style="fill:#d6ab50;"/><path d="M1202.927,829.323c-5.92,3.172 -25.57,-10.457 -32.407,-11.347l-10.072,-10.567c6.917,-7.281 13.176,-5.529 14.818,-5.704c15.327,-1.633 16.934,1.15 16.937,2.55c0.004,2.31 16.582,8.355 16.586,10.665l-5.861,14.402Z" style="fill:#d6ab50;"/><path d="M1341.41,590.579l-0.592,27.134l-168.942,25.451l-25.61,-11.079c0,0 -8.476,-25.081 -9.223,-27.272c-0.748,-2.192 9.223,-25.081 9.223,-25.081l24.007,-1.583l54.494,-11.566l30.025,-0.244l39.748,4.568l-22.225,-56.069l72.231,70.129l-3.135,5.612Z" style="fill:#d6ab50;"/><path d="M1415.839,683.344c-0,0 9.45,19.025 11.119,22.385c0.151,0.303 0.473,0.481 0.81,0.446c62.624,-6.44 116.404,-16.119 173.317,-24.651c1.034,-0.155 2.087,-0.146 3.118,0.027c2.658,0.445 7.946,1.332 9.578,1.605c0.299,0.05 0.542,0.27 0.621,0.563c2.982,11.083 56.5,210.002 56.5,210.002l-6.582,13.149c0,0 -33.359,35.824 -39.217,42.114c-0.568,0.61 -1.204,1.153 -1.894,1.62c-8.43,5.67 -10.382,8.442 1.744,46.729c0,0 92.865,-84.86 103.882,-94.927c0.647,-0.591 0.883,-1.508 0.603,-2.338c-31.951,-94.699 -66.012,-192.053 -102.667,-284.064c-0.706,-1.771 -2.664,-2.692 -4.478,-2.106c-69.179,22.325 -137.837,45.839 -206.454,69.445Z" style="fill:#d6ab50;"/><path d="M1283.717,221.887c6.452,0.216 5.995,-0.489 12.157,-0.354c8.114,0.177 7.746,-0.271 16.155,-0.465c10.783,-0.25 7.454,17.161 -4.022,14.209c-14.947,-3.844 -18.079,0.539 -24.29,-13.389Z" style="fill:#d6ab50;"/></g><path id="occhio" d="M1501.325,217.284c3.476,-13.062 6.947,-7.843 7.416,-7.137c11.44,17.202 11.03,17.6 28.297,27.602c11.872,10.261 40.582,23.247 17.015,28.416c-42.898,9.408 -38.486,-9.254 -44.953,-25.532c-2.23,-5.613 -4.594,-7.379 -7.775,-23.348Z" style="fill:#f8d872;"/><path id="naso" d="M1651.902,425.031c0.029,0.314 0.262,0.571 0.572,0.631c0.31,0.06 0.622,-0.092 0.766,-0.372c3.658,-7.254 6.009,-15.22 6.853,-24.008c0.03,-0.321 -0.095,-0.637 -0.336,-0.851c-0.241,-0.214 -0.57,-0.301 -0.885,-0.233c-3.365,0.718 -12.094,2.584 -14.804,3.163c-0.178,0.038 -0.324,0.164 -0.388,0.334c-0.064,0.17 -0.038,0.361 0.069,0.507c4.658,6.376 7.371,13.321 8.154,20.829Z" style="fill:#f6e1a4;"/><path d="M1341.306,590.207c-1.144,49.458 0.242,98.916 4.416,148.375c34.359,3.305 67.381,0.217 99.461,-5.135c-5.017,-18.056 -14.082,-34.962 -29.345,-50.1l-40.162,1.908l-34.371,-95.047Z" style="fill:#a87b2a;"/><path d="M1401.651,626.482l-60.73,-36.274l-70.345,-76.151c2.493,-1.918 5.52,-2.97 8.981,-3.32c43.048,15.376 94.735,37.209 137.627,58.969l-15.533,56.776Z" style="fill:#a87b2a;"/><path d="M292.35,250.571l-27.346,36.588c-3.944,-0.881 -7.735,-2.23 -11.483,-3.707c5.682,-16.139 18.442,-28.588 31.668,-40.794l7.162,7.913Z" style="fill:#343434;"/><ellipse cx="122.357" cy="138.003" rx="10.863" ry="12.277" style="fill:#bea366;"/><ellipse cx="1105.935" cy="659.271" rx="13.006" ry="14.926" style="fill:#bea366;"/><ellipse cx="430.107" cy="75.542" rx="10.863" ry="12.277" style="fill:#bea366;"/><path d="M432.33,50.951l-29.685,22.342c-5.663,-13.035 -15.104,-26.43 -14.096,-35.577c0.095,-0.593 0.57,-1.053 1.166,-1.128c12.08,-1.244 28.011,7.598 42.616,14.363Z" style="fill:#0e0c0c;"/><ellipse cx="1431.82" cy="501.131" rx="11.144" ry="15.469" style="fill:#a87b2a;"/></g></svg>